# xmcd
#
# Track frame offsets:
#	150
#	19762
#	36335
#	54345
#	72142
#	92754
#	111035
#	128205
#	148197
#	166492
#	187297
#	209975
#	218420
#	236340
#
# Disc length: 3322 seconds
#
# Revision: 1
# Processed by: cddbd v1.5.2PL0 Copyright (c) Steve Scherf et al.
# Submitted via: dBpowerAMP V4.0
#
DISCID=d10cf80e
DTITLE=Various Artist - MACC Pop-AC Volume LXXVI
DYEAR=1900
DGENRE=
TTITLE0=Wild Orchid - At Night I Pray
TTITLE1=Dave Koz - Don't Look Back
TTITLE2=REO Speedwagon - After Tonight
TTITLE3=Valerie Carter - I Wonder Why
TTITLE4=No Mercy - Where Do You Go
TTITLE5=Michael W. Smith - Cry For Love
TTITLE6=Joy Askew - Little Darling
TTITLE7=Billy Mann - Killed By A Flower
TTITLE8=Dog's Eye View - Small Wonders
TTITLE9=Dishwalla - Counting Blue Cars
TTITLE10=DC Talk - Between You and Me
TTITLE11=Pat McCoy - Intro Into The Klassic Kuts
TTITLE12=Crowded House - Don't Dream It's Over
TTITLE13=Crowded House - Something So Strong
EXTD=
EXTT0=
EXTT1=
EXTT2=
EXTT3=
EXTT4=
EXTT5=
EXTT6=
EXTT7=
EXTT8=
EXTT9=
EXTT10=
EXTT11=
EXTT12=
EXTT13=
PLAYORDER=
